<?xml version="1.0" encoding="utf-8"?>
<!-- Generator: Adobe Illustrator 19.0.0, SVG Export Plug-In . SVG Version: 6.00 Build 0)  -->
<svg version="1.1" id="Layer_1" xmlns="http://www.w3.org/2000/svg" xmlns:xlink="http://www.w3.org/1999/xlink" x="0px" y="0px"
	 viewBox="0 0 230 60" style="enable-background:new 0 0 230 60;" xml:space="preserve">
<style type="text/css">
	.st0{fill:none;}
</style>
<g id="XMLID_2_">
	<rect id="XMLID_37_" x="2" y="5.8" class="st0" width="33" height="53"/>
	<path id="XMLID_9_" d="M7.1,53.4V5.8h7.4v40.5h15.4v7.2H7.1z"/>
</g>
<g id="XMLID_3_">
</g>
<g id="XMLID_4_">
</g>
<g id="XMLID_5_">
</g>
<g id="XMLID_7_">
	<rect id="XMLID_35_" x="23.3" y="6" class="st0" width="42" height="54"/>
	<path id="XMLID_13_" d="M35.2,53.7V13h-9.8V6h26.6v7h-9.5v40.8H35.2z"/>
</g>
<g id="XMLID_8_">
</g>
<g id="XMLID_10_">
	<rect id="XMLID_33_" x="60.5" y="29" class="st0" width="172.8" height="32"/>
	<path id="XMLID_14_" d="M74.5,52.9H63.2V30.7h3.2v19.1h8V52.9z"/>
	<path id="XMLID_16_" d="M89.3,53.1H77.9V30.7H89v3.1h-7.8V40h7.4V43h-7.4V50h8.1V53.1z"/>
	<path id="XMLID_18_" d="M107.4,33.7h-6.1v19.2h-3.3V33.7H92v-3h15.4V33.7z"/>
	<path id="XMLID_20_" d="M113.8,33.4c0,1-0.2,1.7-0.5,2.2c-0.5,0.6-1.3,0.9-2.3,1v-1.8c0.4,0,0.7-0.2,0.9-0.5
		c0.1-0.1,0.2-0.5,0.2-0.9v-0.5h-1.3v-3.3h3V33.4z"/>
	<path id="XMLID_22_" d="M127.2,39.9c-1.3-0.6-2.6-0.8-3.8-0.8c-1.7,0-2.5,0.7-2.5,2c0,0.6,0.6,1.2,1.9,1.8c1.8,0.9,3,1.6,3.5,2
		c1.2,1,1.9,2.3,1.9,3.8c0,1.7-0.7,3-2,3.8c-1.1,0.7-2.3,1-3.8,1c-1.8,0-3.4-0.3-4.7-0.8l0.3-3.1c1.5,0.7,2.9,1.1,4.3,1.1
		c0.8,0,1.5-0.2,2-0.6c0.5-0.4,0.7-0.9,0.7-1.5c0-0.8-0.6-1.5-1.8-2.2c-1.1-0.6-2-1.1-2.5-1.4c-0.6-0.3-0.9-0.5-0.9-0.5
		c-1.2-0.9-1.8-2-1.8-3.4c0-1.6,0.6-2.9,1.8-3.7c1-0.6,2.2-1,3.6-1c1.6,0,3,0.3,4.2,0.8L127.2,39.9z"/>
	<path id="XMLID_24_" d="M153.6,33.7h-6.1v19.2h-3.3V33.7h-6.1v-3h15.4V33.7z"/>
	<path id="XMLID_26_" d="M168.3,53.1h-11.4V30.7h11.1v3.1h-7.8V40h7.4V43h-7.4V50h8.1V53.1z"/>
	<path id="XMLID_28_" d="M192.2,53.1h-3.5l-2.3-5.7h-9.7l-2.3,5.7h-3.5l9.1-22.4h3.3L192.2,53.1z M185.2,44.2l-3.6-9.2l-3.7,9.2
		H185.2z"/>
	<path id="XMLID_31_" d="M218.6,53.1h-3.2V35.8l-6.8,17.2h-2.6l-7.1-17.2v17.3h-3.2V30.7h4.3l7.3,17.8l7.1-17.8h4.3V53.1z"/>
</g>
<g id="XMLID_11_">
</g>
<g id="XMLID_12_">
</g>
<g id="XMLID_1_">
</g>
<g id="XMLID_6_">
</g>
<g id="XMLID_38_">
</g>
<g id="XMLID_39_">
</g>
<g id="XMLID_40_">
</g>
<g id="XMLID_41_">
</g>
<g id="XMLID_42_">
</g>
<g id="XMLID_43_">
</g>
<g id="XMLID_44_">
</g>
<g id="XMLID_45_">
</g>
<g id="XMLID_46_">
</g>
<g id="XMLID_47_">
</g>
<g id="XMLID_48_">
</g>
<g id="XMLID_49_">
</g>
<g id="XMLID_50_">
</g>
</svg>
